<svg width="1330" height="252" viewBox="0 0 1330 252" fill="none" xmlns="http://www.w3.org/2000/svg">
<rect width="1330" height="252" fill="#333333"/>
<path d="M230.305 117.298H243.085C243.755 117.298 244.446 117.16 245.156 116.884C245.866 116.569 246.497 116.135 247.049 115.583C247.641 114.991 248.114 114.281 248.469 113.453C248.863 112.624 249.061 111.678 249.061 110.613C249.061 109.627 248.883 108.719 248.528 107.891C248.173 107.023 247.7 106.294 247.108 105.702C246.556 105.11 245.925 104.657 245.215 104.341C244.544 103.986 243.854 103.809 243.144 103.809H230.305V117.298ZM245.511 148.715C246.142 148.715 246.891 148.577 247.759 148.301C248.666 148.025 249.494 147.591 250.244 146.999C251.033 146.408 251.703 145.619 252.255 144.633C252.808 143.646 253.084 142.443 253.084 141.023C253.084 139.84 252.867 138.795 252.433 137.888C252.039 136.941 251.486 136.152 250.776 135.521C250.106 134.89 249.297 134.417 248.351 134.101C247.443 133.746 246.477 133.569 245.451 133.569H230.305V148.715H245.511ZM208 166.464V86H244.446C248.627 86 252.394 86.493 255.746 87.4791C259.138 88.4652 262.018 89.9246 264.384 91.8573C266.751 93.7901 268.565 96.1961 269.827 99.0755C271.09 101.915 271.721 105.189 271.721 108.897C271.721 110.514 271.445 112.112 270.892 113.689C270.38 115.267 269.689 116.726 268.822 118.067C267.954 119.369 266.948 120.533 265.804 121.558C264.7 122.544 263.556 123.274 262.373 123.747C264.187 124.457 265.923 125.424 267.579 126.646C269.236 127.83 270.695 129.21 271.957 130.788C273.22 132.326 274.225 134.042 274.975 135.935C275.724 137.829 276.099 139.84 276.099 141.97C276.099 146.546 275.251 150.391 273.555 153.507C271.898 156.623 269.729 159.148 267.047 161.08C264.365 163.013 261.327 164.394 257.935 165.222C254.583 166.05 251.21 166.464 247.818 166.464H208Z" fill="white"/>
<path d="M287.575 86H309.821V129.131L343.367 86H362.951V166.464H340.587V123.156L306.922 166.464H287.575V86Z" fill="white"/>
<path d="M394.247 104.578H373.007V86H437.615V104.578H416.434V166.464H394.247V104.578Z" fill="white"/>
<path d="M478.2 141.674L466.722 166.464H442.286L457.137 135.758C453.784 133.312 451.142 130.236 449.209 126.528C447.276 122.82 446.31 118.62 446.31 113.926C446.31 109.863 447.099 106.116 448.676 102.685C450.254 99.253 452.384 96.3144 455.066 93.869C457.788 91.384 460.963 89.4513 464.592 88.0708C468.22 86.6903 472.086 86 476.188 86H509.143V166.464H486.838V141.674H478.2ZM486.838 123.096V104.578H476.661C475.557 104.578 474.512 104.834 473.526 105.347C472.579 105.82 471.731 106.491 470.982 107.359C470.272 108.187 469.7 109.173 469.266 110.317C468.832 111.461 468.615 112.664 468.615 113.926C468.615 115.267 468.832 116.509 469.266 117.653C469.739 118.758 470.35 119.724 471.1 120.552C471.849 121.341 472.717 121.972 473.703 122.446C474.689 122.88 475.695 123.096 476.721 123.096H486.838Z" fill="white"/>
<path d="M658 87.9704H679.224V164.534H658V87.9704ZM692.116 126.14C692.116 122.424 692.604 118.859 693.58 115.443C694.593 111.99 696.019 108.781 697.858 105.816C699.697 102.851 701.893 100.149 704.445 97.7097C707.034 95.2702 709.887 93.1872 713.002 91.4608C716.117 89.7343 719.476 88.402 723.079 87.4637C726.682 86.4879 730.435 86 734.338 86C738.204 86 741.938 86.4879 745.541 87.4637C749.144 88.402 752.503 89.7343 755.618 91.4608C758.734 93.1872 761.567 95.2702 764.119 97.7097C766.709 100.149 768.923 102.851 770.762 105.816C772.601 108.781 774.027 111.99 775.041 115.443C776.054 118.859 776.561 122.424 776.561 126.14C776.561 129.855 776.054 133.421 775.041 136.836C774.027 140.251 772.601 143.46 770.762 146.463C768.923 149.428 766.709 152.149 764.119 154.626C761.567 157.065 758.734 159.167 755.618 160.931C752.503 162.657 749.144 163.99 745.541 164.928C741.938 165.904 738.204 166.392 734.338 166.392C730.435 166.392 726.682 165.904 723.079 164.928C719.476 163.99 716.117 162.657 713.002 160.931C709.887 159.167 707.034 157.065 704.445 154.626C701.893 152.149 699.697 149.428 697.858 146.463C696.019 143.46 694.593 140.251 693.58 136.836C692.604 133.421 692.116 129.855 692.116 126.14ZM713.283 126.196C713.283 129.424 713.828 132.407 714.916 135.147C716.042 137.887 717.543 140.27 719.42 142.297C721.334 144.286 723.567 145.862 726.119 147.026C728.671 148.152 731.411 148.715 734.338 148.715C737.266 148.715 740.006 148.152 742.558 147.026C745.147 145.862 747.38 144.286 749.257 142.297C751.171 140.27 752.672 137.887 753.761 135.147C754.849 132.407 755.393 129.424 755.393 126.196C755.393 122.968 754.849 119.984 753.761 117.245C752.672 114.505 751.171 112.14 749.257 110.151C747.38 108.125 745.147 106.548 742.558 105.422C740.006 104.259 737.266 103.677 734.338 103.677C731.411 103.677 728.671 104.259 726.119 105.422C723.567 106.548 721.334 108.125 719.42 110.151C717.543 112.14 716.042 114.505 714.916 117.245C713.828 119.984 713.283 122.968 713.283 126.196ZM709.624 117.639V134.19H673.876V117.695L709.624 117.639Z" fill="#FA0489"/>
<path d="M807.409 117.751H819.569C820.207 117.751 820.864 117.62 821.54 117.357C822.215 117.057 822.816 116.644 823.341 116.119C823.904 115.556 824.354 114.88 824.692 114.092C825.068 113.304 825.255 112.403 825.255 111.39C825.255 110.452 825.086 109.588 824.749 108.8C824.411 107.974 823.96 107.28 823.397 106.717C822.872 106.154 822.271 105.723 821.596 105.422C820.958 105.085 820.301 104.916 819.626 104.916H807.409V117.751ZM821.877 147.645C822.478 147.645 823.191 147.514 824.017 147.251C824.88 146.988 825.668 146.575 826.381 146.012C827.132 145.449 827.77 144.699 828.295 143.76C828.821 142.822 829.083 141.677 829.083 140.326C829.083 139.2 828.877 138.206 828.464 137.343C828.089 136.442 827.563 135.691 826.888 135.091C826.25 134.49 825.48 134.04 824.58 133.74C823.716 133.402 822.797 133.233 821.821 133.233H807.409V147.645H821.877ZM786.185 164.534V87.9704H820.864C824.842 87.9704 828.427 88.4395 831.617 89.3778C834.844 90.3161 837.584 91.7047 839.836 93.5438C842.088 95.3828 843.814 97.6722 845.015 100.412C846.216 103.114 846.817 106.229 846.817 109.757C846.817 111.296 846.554 112.816 846.029 114.317C845.541 115.818 844.884 117.207 844.058 118.483C843.233 119.722 842.276 120.829 841.187 121.805C840.136 122.743 839.048 123.437 837.922 123.888C839.648 124.563 841.3 125.483 842.876 126.646C844.452 127.772 845.841 129.086 847.042 130.587C848.243 132.051 849.2 133.683 849.913 135.485C850.626 137.286 850.983 139.2 850.983 141.227C850.983 145.581 850.176 149.24 848.562 152.205C846.986 155.17 844.922 157.572 842.369 159.411C839.817 161.25 836.927 162.563 833.7 163.352C830.51 164.14 827.301 164.534 824.073 164.534H786.185Z" fill="#FA0489"/>
<path d="M861.902 87.9704H917.185V105.648H883.126V117.864H912.175V135.485H883.126V146.857H917.692V164.534H861.902V87.9704Z" fill="#FA0489"/>
<path d="M980.067 105.648H954.452V144.267C954.452 148.358 953.682 151.811 952.143 154.626C950.642 157.44 948.691 159.73 946.289 161.494C943.887 163.22 941.222 164.459 938.294 165.209C935.367 165.998 932.496 166.392 929.681 166.392C927.955 166.392 926.416 166.298 925.065 166.11C923.714 165.96 922.494 165.754 921.405 165.491L925.065 148.433C925.177 148.433 925.421 148.452 925.797 148.489C926.172 148.527 926.566 148.564 926.979 148.602C927.429 148.639 927.842 148.677 928.217 148.715C928.63 148.752 928.912 148.771 929.062 148.771C930.3 148.771 931.295 148.339 932.046 147.476C932.834 146.575 933.228 145.149 933.228 143.197V87.9704H1001.18V164.534H980.067V105.648Z" fill="#FA0489"/>
<path d="M1015.59 87.9704H1036.76V129.011L1068.68 87.9704H1087.31V164.534H1066.03V123.325L1034 164.534H1015.59V87.9704Z" fill="#FA0489"/>
<path d="M1122.89 142.184V164.534H1101.66V87.9704H1135.5C1139.66 87.9704 1143.49 88.6459 1146.98 89.9971C1150.47 91.3482 1153.47 93.2435 1155.99 95.683C1158.54 98.085 1160.51 100.956 1161.9 104.296C1163.33 107.599 1164.04 111.221 1164.04 115.162C1164.04 119.178 1163.33 122.837 1161.9 126.14C1160.51 129.442 1158.56 132.295 1156.05 134.697C1153.57 137.061 1150.58 138.9 1147.09 140.214C1143.64 141.527 1139.87 142.184 1135.78 142.184H1122.89ZM1134.54 124.507C1135.67 124.507 1136.72 124.263 1137.69 123.775C1138.71 123.287 1139.59 122.63 1140.34 121.805C1141.13 120.941 1141.73 119.947 1142.14 118.821C1142.59 117.695 1142.82 116.475 1142.82 115.162C1142.82 113.886 1142.59 112.685 1142.14 111.559C1141.73 110.395 1141.15 109.382 1140.4 108.519C1139.64 107.655 1138.76 106.961 1137.75 106.436C1136.77 105.91 1135.72 105.648 1134.6 105.648H1122.89V124.507H1134.54Z" fill="#FA0489"/>
<path d="M598.263 93.2219L602.485 88.9586L593.959 80.5148L589.737 84.7781L598.263 93.2219ZM543 140.5L538.737 136.278C536.421 138.616 536.421 142.384 538.737 144.722L543 140.5ZM589.737 196.222L593.959 200.485L602.485 192.041L598.263 187.778L589.737 196.222ZM589.737 84.7781L538.737 136.278L547.263 144.722L598.263 93.2219L589.737 84.7781ZM538.737 144.722L589.737 196.222L598.263 187.778L547.263 136.278L538.737 144.722Z" fill="#C419E0"/>
<path d="M598.263 74.2219L602.485 69.9586L593.959 61.5148L589.737 65.7781L598.263 74.2219ZM543 121.5L538.737 117.278C536.421 119.616 536.421 123.384 538.737 125.722L543 121.5ZM589.737 177.222L593.959 181.485L602.485 173.041L598.263 168.778L589.737 177.222ZM589.737 65.7781L538.737 117.278L547.263 125.722L598.263 74.2219L589.737 65.7781ZM538.737 125.722L589.737 177.222L598.263 168.778L547.263 117.278L538.737 125.722Z" fill="#C419E0"/>
<path d="M566.778 163.737L562.515 167.959L570.959 176.485L575.222 172.263L566.778 163.737ZM623 116.5L627.222 120.763C628.36 119.636 629 118.101 629 116.5C629 114.899 628.36 113.364 627.222 112.237L623 116.5ZM575.222 60.7369L570.959 56.5148L562.515 65.041L566.778 69.2631L575.222 60.7369ZM575.222 172.263L627.222 120.763L618.778 112.237L566.778 163.737L575.222 172.263ZM627.222 112.237L575.222 60.7369L566.778 69.2631L618.778 120.763L627.222 112.237Z" fill="#FA0489"/>
<path d="M566.778 144.737L562.515 148.959L570.959 157.485L575.222 153.263L566.778 144.737ZM623 97.5L627.222 101.763C628.36 100.636 629 99.1013 629 97.5C629 95.8987 628.36 94.3638 627.222 93.2369L623 97.5ZM575.222 41.7369L570.959 37.5148L562.515 46.041L566.778 50.2631L575.222 41.7369ZM575.222 153.263L627.222 101.763L618.778 93.2369L566.778 144.737L575.222 153.263ZM627.222 93.2369L575.222 41.7369L566.778 50.2631L618.778 101.763L627.222 93.2369Z" fill="#FA0489"/>
</svg>
