<svg width="255" height="258" viewBox="0 0 255 258" fill="none" xmlns="http://www.w3.org/2000/svg">
<path d="M40.8961 46.1593H59.7438C60.7327 46.1593 61.7507 45.9557 62.7978 45.5485C63.8449 45.0831 64.7757 44.4432 65.5901 43.6288C66.4626 42.7563 67.1607 41.7092 67.6842 40.4876C68.266 39.266 68.5568 37.8698 68.5568 36.2992C68.5568 34.8449 68.295 33.5069 67.7715 32.2853C67.248 31.0056 66.5499 29.9294 65.6773 29.0568C64.8629 28.1842 63.9322 27.5153 62.8851 27.0499C61.8961 26.5263 60.8781 26.2646 59.8311 26.2646H40.8961V46.1593ZM63.3214 92.4931C64.2521 92.4931 65.3574 92.2895 66.6372 91.8823C67.9751 91.4751 69.1967 90.8352 70.302 89.9627C71.4654 89.0901 72.4543 87.9266 73.2687 86.4724C74.0831 85.0181 74.4903 83.2438 74.4903 81.1496C74.4903 79.4045 74.1704 77.8629 73.5305 76.525C72.9488 75.1289 72.1344 73.9654 71.0873 73.0347C70.0984 72.1039 68.9058 71.4059 67.5097 70.9405C66.1718 70.4169 64.7466 70.1552 63.2341 70.1552H40.8961V92.4931H63.3214ZM8 118.67V0H61.7507C67.9169 0 73.4723 0.727148 78.4169 2.18144C83.4197 3.63574 87.6662 5.78809 91.1566 8.63851C94.6469 11.4889 97.3228 15.0374 99.1843 19.2839C101.046 23.4723 101.977 28.3006 101.977 33.7687C101.977 36.1538 101.569 38.5097 100.755 40.8366C99.9987 43.1635 98.9807 45.3158 97.7009 47.2937C96.4211 49.2133 94.9377 50.9294 93.2507 52.4419C91.6219 53.8962 89.935 54.9723 88.1898 55.6704C90.8657 56.7175 93.4253 58.1427 95.8685 59.946C98.3117 61.6912 100.464 63.7272 102.326 66.0541C104.187 68.3228 105.67 70.8532 106.776 73.6455C107.881 76.4377 108.434 79.4045 108.434 82.5458C108.434 89.2937 107.183 94.9654 104.681 99.561C102.238 104.157 99.0388 107.88 95.0832 110.73C91.1275 113.58 86.6482 115.616 81.6455 116.838C76.7009 118.06 71.7272 118.67 66.7244 118.67H8Z" fill="url(#paint0_linear)"/>
<path d="M100.358 0H133.167V63.6108L182.642 0H211.524V118.67H178.541V54.7978L128.891 118.67H100.358V0Z" fill="url(#paint1_linear)"/>
<path d="M50.489 158.399H8.16345V131H210.449V158.399H83.2106V249.67H50.489V158.399Z" fill="url(#paint2_linear)"/>
<path d="M165.304 213.109L148.376 249.67H112.339L134.24 204.384C129.296 200.777 125.398 196.24 122.548 190.771C119.697 185.303 118.272 179.108 118.272 172.186C118.272 166.194 119.436 160.668 121.763 155.607C124.089 150.546 127.231 146.212 131.186 142.605C135.2 138.94 139.883 136.09 145.235 134.054C150.587 132.018 156.287 131 162.337 131H210.94V249.67H178.044V213.109H165.304ZM178.044 185.711V158.399H163.035C161.407 158.399 159.865 158.777 158.411 159.533C157.015 160.231 155.764 161.22 154.659 162.5C153.612 163.722 152.768 165.176 152.128 166.863C151.488 168.55 151.168 170.324 151.168 172.186C151.168 174.163 151.488 175.996 152.128 177.683C152.826 179.312 153.728 180.737 154.833 181.958C155.938 183.122 157.218 184.053 158.673 184.751C160.127 185.391 161.61 185.711 163.123 185.711H178.044Z" fill="url(#paint3_linear)"/>
<path d="M32.8961 54.1593H51.7438C52.7327 54.1593 53.7507 53.9557 54.7978 53.5485C55.8449 53.0831 56.7757 52.4432 57.5901 51.6288C58.4626 50.7563 59.1607 49.7092 59.6842 48.4876C60.266 47.266 60.5568 45.8698 60.5568 44.2992C60.5568 42.8449 60.295 41.5069 59.7715 40.2853C59.248 39.0056 58.5499 37.9294 57.6773 37.0568C56.8629 36.1842 55.9322 35.5153 54.8851 35.0499C53.8961 34.5263 52.8781 34.2646 51.8311 34.2646H32.8961V54.1593ZM55.3214 100.493C56.2521 100.493 57.3574 100.29 58.6372 99.8823C59.9751 99.4751 61.1967 98.8352 62.302 97.9627C63.4654 97.0901 64.4543 95.9266 65.2687 94.4724C66.0831 93.0181 66.4903 91.2438 66.4903 89.1496C66.4903 87.4045 66.1704 85.8629 65.5305 84.525C64.9488 83.1289 64.1344 81.9654 63.0873 81.0347C62.0984 80.1039 60.9058 79.4059 59.5097 78.9405C58.1718 78.4169 56.7466 78.1552 55.2341 78.1552H32.8961V100.493H55.3214ZM0 126.67V8H53.7507C59.9169 8 65.4723 8.72715 70.4169 10.1814C75.4197 11.6357 79.6662 13.7881 83.1566 16.6385C86.6469 19.4889 89.3228 23.0374 91.1843 27.2839C93.0458 31.4723 93.9765 36.3006 93.9765 41.7687C93.9765 44.1538 93.5693 46.5097 92.7549 48.8366C91.9987 51.1635 90.9807 53.3158 89.7009 55.2937C88.4211 57.2133 86.9377 58.9294 85.2507 60.4419C83.6219 61.8962 81.935 62.9723 80.1898 63.6704C82.8657 64.7175 85.4253 66.1427 87.8685 67.946C90.3117 69.6912 92.464 71.7272 94.3255 74.0541C96.187 76.3228 97.6704 78.8532 98.7757 81.6455C99.8809 84.4377 100.434 87.4045 100.434 90.5458C100.434 97.2937 99.1829 102.965 96.6815 107.561C94.2383 112.157 91.0388 115.88 87.0832 118.73C83.1275 121.58 78.6482 123.616 73.6455 124.838C68.7009 126.06 63.7272 126.67 58.7244 126.67H0Z" fill="#FFFFEB"/>
<path d="M92.3581 8H125.167V71.6108L174.642 8H203.524V126.67H170.541V62.7978L120.891 126.67H92.3581V8Z" fill="#FFFFEB"/>
<path d="M42.489 166.399H0.163452V139H202.449V166.399H75.2106V257.67H42.489V166.399Z" fill="#FFFFEB"/>
<path d="M157.304 221.109L140.376 257.67H104.339L126.24 212.384C121.296 208.777 117.398 204.24 114.548 198.771C111.697 193.303 110.272 187.108 110.272 180.186C110.272 174.194 111.436 168.668 113.763 163.607C116.089 158.546 119.231 154.212 123.186 150.605C127.2 146.94 131.883 144.09 137.235 142.054C142.587 140.018 148.287 139 154.337 139H202.94V257.67H170.044V221.109H157.304ZM170.044 193.711V166.399H155.035C153.407 166.399 151.865 166.777 150.411 167.533C149.015 168.231 147.764 169.22 146.659 170.5C145.612 171.722 144.768 173.176 144.128 174.863C143.488 176.55 143.168 178.324 143.168 180.186C143.168 182.163 143.488 183.996 144.128 185.683C144.826 187.312 145.728 188.737 146.833 189.958C147.938 191.122 149.218 192.053 150.673 192.751C152.127 193.391 153.61 193.711 155.123 193.711H170.044Z" fill="#FFFFEB"/>
<path d="M254.167 4L254.167 14.4853L221.786 14.4853L221.786 4L254.167 4ZM238.024 20.8543C239.595 20.8543 241.103 21.0953 242.548 21.5774C244.008 22.0781 245.365 22.7826 246.619 23.6912C247.873 24.5997 249.016 25.6844 250.048 26.9452C251.079 28.2246 251.96 29.6338 252.69 31.1727C253.421 32.7117 253.984 34.3711 254.381 36.1511C254.794 37.9311 255 39.7853 255 41.7136C255 43.6234 254.794 45.4683 254.381 47.2483C253.984 49.0283 253.421 50.6877 252.69 52.2267C251.96 53.7656 251.079 55.1655 250.048 56.4263C249.016 57.7057 247.873 58.7997 246.619 59.7082C245.365 60.6168 244.008 61.3213 242.548 61.822C241.103 62.3226 239.595 62.5729 238.024 62.5729C236.452 62.5729 234.944 62.3226 233.5 61.822C232.056 61.3213 230.698 60.6168 229.429 59.7082C228.175 58.7997 227.024 57.7057 225.976 56.4264C224.944 55.1655 224.056 53.7656 223.31 52.2267C222.579 50.6877 222.016 49.0283 221.619 47.2483C221.206 45.4683 221 43.6234 221 41.7136C221 39.7853 221.206 37.9311 221.619 36.1511C222.016 34.3711 222.579 32.7117 223.31 31.1727C224.056 29.6338 224.944 28.2246 225.976 26.9452C227.024 25.6844 228.175 24.5997 229.429 23.6912C230.698 22.7826 232.056 22.0781 233.5 21.5774C234.944 21.0953 236.452 20.8543 238.024 20.8543ZM238 31.3118C236.635 31.3118 235.373 31.5806 234.214 32.1183C233.056 32.6746 232.048 33.4162 231.19 34.3433C230.349 35.2889 229.683 36.3922 229.19 37.653C228.714 38.9138 228.476 40.2674 228.476 41.7136C228.476 43.1598 228.714 44.5134 229.19 45.7742C229.683 47.0536 230.349 48.1568 231.19 49.0839C232.048 50.0295 233.056 50.7712 234.214 51.3089C235.373 51.8466 236.635 52.1154 238 52.1154C239.365 52.1154 240.627 51.8466 241.786 51.3089C242.944 50.7712 243.944 50.0295 244.786 49.0839C245.643 48.1568 246.31 47.0536 246.786 45.7742C247.278 44.5134 247.524 43.1598 247.524 41.7136C247.524 40.2674 247.278 38.9138 246.786 37.653C246.31 36.3922 245.643 35.2889 244.786 34.3433C243.944 33.4162 242.944 32.6746 241.786 32.1183C240.627 31.5806 239.365 31.3118 238 31.3118ZM241.619 29.504L234.619 29.504L234.619 11.8431L241.595 11.8431L241.619 29.504Z" fill="url(#paint4_linear)"/>
<path d="M241.571 77.813L241.571 83.8205C241.571 84.1357 241.627 84.4601 241.738 84.7939C241.865 85.1276 242.04 85.4243 242.262 85.6839C242.5 85.962 242.786 86.1845 243.119 86.3514C243.452 86.5368 243.833 86.6295 244.262 86.6295C244.659 86.6295 245.024 86.5461 245.357 86.3792C245.706 86.2123 246 85.9898 246.238 85.7117C246.476 85.4521 246.659 85.1554 246.786 84.8217C246.929 84.5065 247 84.182 247 83.8483L247 77.813L241.571 77.813ZM228.929 84.9608C228.929 85.2574 228.984 85.6097 229.095 86.0176C229.206 86.4441 229.381 86.8335 229.619 87.1857C229.857 87.5566 230.175 87.8718 230.571 88.1314C230.968 88.3909 231.452 88.5207 232.024 88.5207C232.5 88.5207 232.921 88.4188 233.286 88.2148C233.667 88.0294 233.984 87.7698 234.238 87.4361C234.492 87.1208 234.683 86.7407 234.81 86.2957C234.952 85.8693 235.024 85.415 235.024 84.9329L235.024 77.813L228.929 77.813L228.929 84.9608ZM221.786 67.3277L254.167 67.3277L254.167 84.4601C254.167 86.4255 253.968 88.1963 253.571 89.7723C253.175 91.3669 252.587 92.7204 251.81 93.8329C251.032 94.9454 250.063 95.7983 248.905 96.3916C247.762 96.985 246.444 97.2816 244.952 97.2816C244.302 97.2816 243.659 97.1518 243.024 96.8923C242.389 96.6512 241.802 96.3268 241.262 95.9188C240.738 95.5109 240.27 95.0381 239.857 94.5004C239.46 93.9812 239.167 93.4435 238.976 92.8873C238.69 93.7402 238.302 94.556 237.81 95.3348C237.333 96.1135 236.778 96.7996 236.143 97.3929C235.524 97.9862 234.833 98.459 234.071 98.8113C233.31 99.1636 232.5 99.3398 231.643 99.3398C229.802 99.3398 228.254 98.9411 227 98.1438C225.746 97.3651 224.73 96.3453 223.952 95.0845C223.175 93.8236 222.619 92.3959 222.286 90.8014C221.952 89.2253 221.786 87.64 221.786 86.0454L221.786 67.3277Z" fill="url(#paint5_linear)"/>
<path d="M254.167 104.734L254.167 132.046L246.69 132.046L246.69 115.22L241.524 115.22L241.524 129.571L234.071 129.571L234.071 115.22L229.262 115.22L229.262 132.296L221.786 132.296L221.786 104.734L254.167 104.734Z" fill="url(#paint6_linear)"/>
<path d="M246.69 163.111L246.69 150.457L230.357 150.457C228.627 150.457 227.167 150.077 225.976 149.316C224.786 148.575 223.817 147.611 223.071 146.424C222.341 145.237 221.817 143.921 221.5 142.475C221.167 141.028 221 139.61 221 138.219C221 137.366 221.04 136.606 221.119 135.939C221.183 135.271 221.27 134.669 221.381 134.131L228.595 135.939C228.595 135.994 228.587 136.115 228.571 136.3C228.556 136.486 228.54 136.68 228.524 136.884C228.508 137.107 228.492 137.311 228.476 137.496C228.46 137.7 228.452 137.839 228.452 137.913C228.452 138.525 228.635 139.017 229 139.387C229.381 139.777 229.984 139.971 230.81 139.971L254.167 139.971L254.167 173.541L221.786 173.541L221.786 163.111L246.69 163.111Z" fill="url(#paint7_linear)"/>
<path d="M254.167 180.66L254.167 191.117L236.81 191.117L254.167 206.887L254.167 216.093L221.786 216.093L221.786 205.58L239.214 205.58L221.786 189.754L221.786 180.66L254.167 180.66Z" fill="url(#paint8_linear)"/>
<path d="M231.238 233.669L221.786 233.669L221.786 223.184L254.167 223.184L254.167 239.899C254.167 241.957 253.881 243.848 253.31 245.573C252.738 247.297 251.937 248.781 250.905 250.023C249.889 251.284 248.675 252.257 247.262 252.943C245.865 253.648 244.333 254 242.667 254C240.968 254 239.421 253.648 238.024 252.943C236.627 252.257 235.421 251.293 234.405 250.051C233.405 248.827 232.627 247.353 232.071 245.628C231.516 243.923 231.238 242.059 231.238 240.038L231.238 233.669ZM238.714 239.426C238.714 239.983 238.817 240.502 239.024 240.984C239.23 241.484 239.508 241.92 239.857 242.291C240.222 242.68 240.643 242.977 241.119 243.181C241.595 243.403 242.111 243.515 242.667 243.515C243.206 243.515 243.714 243.403 244.19 243.181C244.683 242.977 245.111 242.69 245.476 242.319C245.841 241.948 246.135 241.512 246.357 241.012C246.579 240.53 246.69 240.01 246.69 239.454L246.69 233.669L238.714 233.669L238.714 239.426Z" fill="url(#paint9_linear)"/>
<mask id="mask0" mask-type="alpha" maskUnits="userSpaceOnUse" x="0" y="176" width="32" height="82">
<rect y="176" width="32" height="82" fill="url(#paint10_linear)"/>
</mask>
<g mask="url(#mask0)">
<rect y="176" width="32" height="15" fill="url(#paint11_linear)"/>
<rect y="243" width="32" height="15" fill="url(#paint12_linear)"/>
<rect y="198" width="32" height="16" fill="url(#paint13_linear)"/>
<rect y="220" width="32" height="16" fill="url(#paint14_linear)"/>
</g>
<defs>
<linearGradient id="paint0_linear" x1="109.762" y1="249.67" x2="109.762" y2="0" gradientUnits="userSpaceOnUse">
<stop stop-color="#9D13BC"/>
<stop offset="1" stop-color="#FF88E9"/>
</linearGradient>
<linearGradient id="paint1_linear" x1="109.762" y1="249.67" x2="109.762" y2="0" gradientUnits="userSpaceOnUse">
<stop stop-color="#9D13BC"/>
<stop offset="1" stop-color="#FF88E9"/>
</linearGradient>
<linearGradient id="paint2_linear" x1="109.762" y1="249.67" x2="109.762" y2="0" gradientUnits="userSpaceOnUse">
<stop stop-color="#9D13BC"/>
<stop offset="1" stop-color="#FF88E9"/>
</linearGradient>
<linearGradient id="paint3_linear" x1="109.762" y1="249.67" x2="109.762" y2="0" gradientUnits="userSpaceOnUse">
<stop stop-color="#9D13BC"/>
<stop offset="1" stop-color="#FF88E9"/>
</linearGradient>
<linearGradient id="paint4_linear" x1="244" y1="254" x2="243" y2="4" gradientUnits="userSpaceOnUse">
<stop stop-color="#9D13BC"/>
<stop offset="1" stop-color="#FF88E9"/>
</linearGradient>
<linearGradient id="paint5_linear" x1="244" y1="254" x2="243" y2="4" gradientUnits="userSpaceOnUse">
<stop stop-color="#9D13BC"/>
<stop offset="1" stop-color="#FF88E9"/>
</linearGradient>
<linearGradient id="paint6_linear" x1="244" y1="254" x2="243" y2="4" gradientUnits="userSpaceOnUse">
<stop stop-color="#9D13BC"/>
<stop offset="1" stop-color="#FF88E9"/>
</linearGradient>
<linearGradient id="paint7_linear" x1="244" y1="254" x2="243" y2="4" gradientUnits="userSpaceOnUse">
<stop stop-color="#9D13BC"/>
<stop offset="1" stop-color="#FF88E9"/>
</linearGradient>
<linearGradient id="paint8_linear" x1="244" y1="254" x2="243" y2="4" gradientUnits="userSpaceOnUse">
<stop stop-color="#9D13BC"/>
<stop offset="1" stop-color="#FF88E9"/>
</linearGradient>
<linearGradient id="paint9_linear" x1="244" y1="254" x2="243" y2="4" gradientUnits="userSpaceOnUse">
<stop stop-color="#9D13BC"/>
<stop offset="1" stop-color="#FF88E9"/>
</linearGradient>
<linearGradient id="paint10_linear" x1="16" y1="258" x2="16" y2="176" gradientUnits="userSpaceOnUse">
<stop stop-color="#9D13BC"/>
<stop offset="1" stop-color="#FF88E9"/>
</linearGradient>
<linearGradient id="paint11_linear" x1="16" y1="191" x2="16" y2="176" gradientUnits="userSpaceOnUse">
<stop stop-color="#9D13BC"/>
<stop offset="1" stop-color="#FF88E9"/>
</linearGradient>
<linearGradient id="paint12_linear" x1="16" y1="258" x2="16" y2="243" gradientUnits="userSpaceOnUse">
<stop stop-color="#9D13BC"/>
<stop offset="1" stop-color="#FF88E9"/>
</linearGradient>
<linearGradient id="paint13_linear" x1="16" y1="214" x2="16" y2="198" gradientUnits="userSpaceOnUse">
<stop stop-color="#9D13BC"/>
<stop offset="1" stop-color="#FF88E9"/>
</linearGradient>
<linearGradient id="paint14_linear" x1="16" y1="236" x2="16" y2="220" gradientUnits="userSpaceOnUse">
<stop stop-color="#9D13BC"/>
<stop offset="1" stop-color="#FF88E9"/>
</linearGradient>
</defs>
</svg>
