<svg width="311" height="275" viewBox="0 0 311 275" fill="none" xmlns="http://www.w3.org/2000/svg">
<path d="M93.7333 46.1593H112.581C113.57 46.1593 114.588 45.9557 115.635 45.5485C116.682 45.0831 117.613 44.4432 118.427 43.6288C119.3 42.7563 119.998 41.7092 120.521 40.4876C121.103 39.266 121.394 37.8698 121.394 36.2992C121.394 34.8449 121.132 33.5069 120.609 32.2853C120.085 31.0056 119.387 29.9294 118.514 29.0568C117.7 28.1842 116.769 27.5153 115.722 27.0499C114.733 26.5263 113.715 26.2646 112.668 26.2646H93.7333V46.1593ZM116.159 92.4931C117.089 92.4931 118.195 92.2895 119.474 91.8823C120.812 91.4751 122.034 90.8352 123.139 89.9627C124.303 89.0901 125.291 87.9266 126.106 86.4724C126.92 85.0181 127.327 83.2438 127.327 81.1496C127.327 79.4045 127.008 77.8629 126.368 76.525C125.786 75.1289 124.972 73.9654 123.924 73.0347C122.936 72.1039 121.743 71.4059 120.347 70.9405C119.009 70.4169 117.584 70.1552 116.071 70.1552H93.7333V92.4931H116.159ZM60.8372 118.67V0H114.588C120.754 0 126.309 0.727148 131.254 2.18144C136.257 3.63574 140.503 5.78809 143.994 8.63851C147.484 11.4889 150.16 15.0374 152.021 19.2839C153.883 23.4723 154.814 28.3006 154.814 33.7687C154.814 36.1538 154.406 38.5097 153.592 40.8366C152.836 43.1635 151.818 45.3158 150.538 47.2937C149.258 49.2133 147.775 50.9294 146.088 52.4419C144.459 53.8962 142.772 54.9723 141.027 55.6704C143.703 56.7175 146.262 58.1427 148.706 59.946C151.149 61.6912 153.301 63.7272 155.163 66.0541C157.024 68.3228 158.508 70.8532 159.613 73.6455C160.718 76.4377 161.271 79.4045 161.271 82.5458C161.271 89.2937 160.02 94.9654 157.519 99.561C155.075 104.157 151.876 107.88 147.92 110.73C143.965 113.58 139.485 115.616 134.483 116.838C129.538 118.06 124.564 118.67 119.562 118.67H60.8372Z" fill="#00FF0A"/>
<path d="M153.195 0H186.004V63.6108L235.479 0H264.362V118.67H231.378V54.7978L181.728 118.67H153.195V0Z" fill="#00FF0A"/>
<path d="M103.326 158.399H61.0006V131H263.286V158.399H136.048V249.67H103.326V158.399Z" fill="#00FF0A"/>
<path d="M218.141 213.109L201.213 249.67H165.176L187.078 204.384C182.133 200.777 178.235 196.24 175.385 190.771C172.535 185.303 171.109 179.108 171.109 172.186C171.109 166.194 172.273 160.668 174.6 155.607C176.927 150.546 180.068 146.212 184.023 142.605C188.037 138.94 192.72 136.09 198.072 134.054C203.424 132.018 209.125 131 215.174 131H263.777V249.67H230.881V213.109H218.141ZM230.881 185.711V158.399H215.873C214.244 158.399 212.702 158.777 211.248 159.533C209.852 160.231 208.601 161.22 207.496 162.5C206.449 163.722 205.605 165.176 204.965 166.863C204.325 168.55 204.006 170.324 204.006 172.186C204.006 174.163 204.325 175.996 204.965 177.683C205.663 179.312 206.565 180.737 207.67 181.958C208.776 183.122 210.055 184.053 211.51 184.751C212.964 185.391 214.447 185.711 215.96 185.711H230.881Z" fill="#00FF0A"/>
<path d="M77.7333 62.1593H96.581C97.5699 62.1593 98.5879 61.9557 99.635 61.5485C100.682 61.0831 101.613 60.4432 102.427 59.6288C103.3 58.7563 103.998 57.7092 104.521 56.4876C105.103 55.266 105.394 53.8698 105.394 52.2992C105.394 50.8449 105.132 49.5069 104.609 48.2853C104.085 47.0056 103.387 45.9294 102.514 45.0568C101.7 44.1842 100.769 43.5153 99.7222 43.0499C98.7333 42.5263 97.7153 42.2646 96.6682 42.2646H77.7333V62.1593ZM100.159 108.493C101.089 108.493 102.195 108.29 103.474 107.882C104.812 107.475 106.034 106.835 107.139 105.963C108.303 105.09 109.291 103.927 110.106 102.472C110.92 101.018 111.327 99.2438 111.327 97.1496C111.327 95.4045 111.008 93.8629 110.368 92.525C109.786 91.1289 108.972 89.9654 107.924 89.0347C106.936 88.1039 105.743 87.4059 104.347 86.9405C103.009 86.4169 101.584 86.1552 100.071 86.1552H77.7333V108.493H100.159ZM44.8372 134.67V16H98.5879C104.754 16 110.309 16.7271 115.254 18.1814C120.257 19.6357 124.503 21.7881 127.994 24.6385C131.484 27.4889 134.16 31.0374 136.021 35.2839C137.883 39.4723 138.814 44.3006 138.814 49.7687C138.814 52.1538 138.406 54.5097 137.592 56.8366C136.836 59.1635 135.818 61.3158 134.538 63.2937C133.258 65.2133 131.775 66.9294 130.088 68.4419C128.459 69.8962 126.772 70.9723 125.027 71.6704C127.703 72.7175 130.262 74.1427 132.706 75.946C135.149 77.6912 137.301 79.7272 139.163 82.0541C141.024 84.3228 142.508 86.8532 143.613 89.6455C144.718 92.4377 145.271 95.4045 145.271 98.5458C145.271 105.294 144.02 110.965 141.519 115.561C139.075 120.157 135.876 123.88 131.92 126.73C127.965 129.58 123.485 131.616 118.483 132.838C113.538 134.06 108.564 134.67 103.562 134.67H44.8372Z" fill="#FF88E9"/>
<path d="M137.195 16H170.004V79.6108L219.479 16H248.362V134.67H215.378V70.7978L165.728 134.67H137.195V16Z" fill="#FF88E9"/>
<path d="M87.3261 174.399H45.0006V147H247.286V174.399H120.048V265.67H87.3261V174.399Z" fill="#FF88E9"/>
<path d="M202.141 229.109L185.213 265.67H149.176L171.078 220.384C166.133 216.777 162.235 212.24 159.385 206.771C156.535 201.303 155.109 195.108 155.109 188.186C155.109 182.194 156.273 176.668 158.6 171.607C160.927 166.546 164.068 162.212 168.023 158.605C172.037 154.94 176.72 152.09 182.072 150.054C187.424 148.018 193.125 147 199.174 147H247.777V265.67H214.881V229.109H202.141ZM214.881 201.711V174.399H199.873C198.244 174.399 196.702 174.777 195.248 175.533C193.852 176.231 192.601 177.22 191.496 178.5C190.449 179.722 189.605 181.176 188.965 182.863C188.325 184.55 188.006 186.324 188.006 188.186C188.006 190.163 188.325 191.996 188.965 193.683C189.663 195.312 190.565 196.737 191.67 197.958C192.776 199.122 194.055 200.053 195.51 200.751C196.964 201.391 198.447 201.711 199.96 201.711H214.881Z" fill="#FF88E9"/>
<path d="M279.621 266L279.621 257.276L310.098 257.276L310.098 266L279.621 266ZM294.815 251.977C293.336 251.977 291.917 251.777 290.557 251.376C289.183 250.959 287.905 250.373 286.725 249.617C285.545 248.861 284.469 247.959 283.498 246.91C282.527 245.845 281.698 244.673 281.011 243.392C280.324 242.112 279.793 240.731 279.42 239.25C279.031 237.769 278.837 236.227 278.837 234.622C278.837 233.033 279.031 231.498 279.42 230.017C279.793 228.536 280.324 227.156 281.011 225.875C281.698 224.595 282.527 223.43 283.498 222.381C284.469 221.317 285.545 220.407 286.725 219.651C287.905 218.895 289.183 218.309 290.557 217.892C291.917 217.476 293.336 217.267 294.815 217.267C296.294 217.267 297.713 217.476 299.072 217.892C300.432 218.309 301.709 218.895 302.904 219.651C304.085 220.407 305.168 221.317 306.154 222.381C307.125 223.43 307.961 224.595 308.663 225.875C309.351 227.156 309.881 228.536 310.255 230.017C310.643 231.498 310.837 233.033 310.837 234.622C310.837 236.227 310.643 237.769 310.255 239.25C309.881 240.731 309.351 242.112 308.663 243.392C307.961 244.673 307.125 245.845 306.154 246.91C305.168 247.959 304.085 248.861 302.904 249.617C301.709 250.373 300.432 250.959 299.072 251.376C297.713 251.777 296.294 251.977 294.815 251.977ZM294.837 243.277C296.122 243.277 297.31 243.053 298.4 242.606C299.491 242.143 300.439 241.526 301.246 240.754C302.038 239.968 302.665 239.05 303.128 238.001C303.577 236.952 303.801 235.826 303.801 234.622C303.801 233.419 303.577 232.293 303.128 231.244C302.665 230.179 302.038 229.262 301.246 228.49C300.439 227.703 299.491 227.086 298.4 226.639C297.31 226.192 296.122 225.968 294.837 225.968C293.552 225.968 292.365 226.192 291.274 226.639C290.184 227.086 289.242 227.703 288.451 228.49C287.644 229.262 287.016 230.179 286.568 231.244C286.105 232.293 285.874 233.419 285.874 234.622C285.874 235.826 286.105 236.952 286.568 238.001C287.016 239.05 287.644 239.968 288.451 240.754C289.242 241.526 290.184 242.143 291.274 242.606C292.365 243.053 293.552 243.277 294.837 243.277ZM291.431 244.781L298.019 244.781L298.019 259.475L291.453 259.475L291.431 244.781Z" fill="#00FF0A"/>
<path d="M291.476 204.588L291.476 199.589C291.476 199.327 291.424 199.057 291.319 198.779C291.199 198.502 291.035 198.255 290.826 198.039C290.602 197.808 290.333 197.622 290.019 197.484C289.706 197.329 289.347 197.252 288.944 197.252C288.57 197.252 288.227 197.322 287.913 197.461C287.584 197.599 287.308 197.784 287.084 198.016C286.86 198.232 286.688 198.479 286.568 198.756C286.434 199.019 286.367 199.289 286.367 199.566L286.367 204.588L291.476 204.588ZM303.375 198.641C303.375 198.394 303.323 198.101 303.218 197.761C303.114 197.407 302.949 197.083 302.725 196.789C302.501 196.481 302.202 196.219 301.829 196.003C301.455 195.787 301 195.679 300.462 195.679C300.014 195.679 299.618 195.764 299.274 195.933C298.916 196.088 298.617 196.304 298.378 196.581C298.139 196.843 297.959 197.16 297.84 197.53C297.706 197.885 297.638 198.263 297.638 198.664L297.638 204.588L303.375 204.588L303.375 198.641ZM310.098 213.311L279.621 213.311L279.621 199.057C279.621 197.422 279.808 195.949 280.182 194.637C280.555 193.311 281.108 192.185 281.84 191.259C282.572 190.333 283.483 189.624 284.574 189.13C285.649 188.636 286.889 188.39 288.294 188.39C288.906 188.39 289.511 188.498 290.109 188.714C290.706 188.914 291.259 189.184 291.767 189.524C292.26 189.863 292.701 190.256 293.089 190.704C293.463 191.136 293.739 191.583 293.918 192.046C294.187 191.336 294.553 190.657 295.016 190.009C295.465 189.362 295.987 188.791 296.585 188.297C297.168 187.803 297.818 187.41 298.535 187.117C299.252 186.824 300.014 186.677 300.82 186.677C302.553 186.677 304.01 187.009 305.19 187.672C306.37 188.32 307.326 189.169 308.058 190.218C308.79 191.267 309.313 192.455 309.627 193.781C309.941 195.093 310.098 196.412 310.098 197.738L310.098 213.311Z" fill="#00FF0A"/>
<path d="M279.621 182.189L279.621 159.466L286.658 159.466L286.658 173.465L291.521 173.465L291.521 161.525L298.535 161.525L298.535 173.465L303.061 173.465L303.061 159.257L310.098 159.257L310.098 182.189L279.621 182.189Z" fill="#00FF0A"/>
<path d="M286.658 133.619L286.658 144.148L302.03 144.148C303.659 144.148 305.033 144.464 306.154 145.097C307.274 145.714 308.185 146.516 308.888 147.503C309.575 148.491 310.068 149.586 310.367 150.789C310.68 151.992 310.837 153.173 310.837 154.33C310.837 155.039 310.8 155.672 310.725 156.227C310.665 156.782 310.583 157.284 310.479 157.731L303.689 156.227C303.689 156.181 303.696 156.08 303.711 155.926C303.726 155.772 303.741 155.61 303.756 155.44C303.771 155.255 303.786 155.085 303.801 154.931C303.816 154.762 303.823 154.646 303.823 154.584C303.823 154.075 303.651 153.666 303.308 153.358C302.949 153.034 302.382 152.872 301.605 152.872L279.621 152.872L279.621 124.942L310.098 124.942L310.098 133.619L286.658 133.619Z" fill="#00FF0A"/>
<path d="M279.621 119.019L279.621 110.318L295.958 110.318L279.621 97.1981L279.621 89.5388L310.098 89.5388L310.098 98.2856L293.694 98.2856L310.098 111.452L310.098 119.019L279.621 119.019Z" fill="#00FF0A"/>
<path d="M301.201 74.9153L310.098 74.9153L310.098 83.639L279.621 83.639L279.621 69.7319C279.621 68.0196 279.89 66.4461 280.428 65.0114C280.966 63.5767 281.72 62.3426 282.691 61.309C283.648 60.26 284.79 59.4501 286.12 58.8793C287.435 58.2931 288.876 58 290.445 58C292.044 58 293.5 58.2931 294.815 58.8793C296.129 59.4501 297.265 60.2523 298.221 61.2859C299.162 62.304 299.894 63.5304 300.417 64.9651C300.94 66.3844 301.201 67.9347 301.201 69.6162L301.201 74.9153ZM294.165 70.1253C294.165 69.6625 294.068 69.2306 293.874 68.8295C293.679 68.4129 293.418 68.0504 293.089 67.7419C292.746 67.4179 292.35 67.1711 291.902 67.0014C291.453 66.8163 290.968 66.7237 290.445 66.7237C289.937 66.7237 289.459 66.8163 289.011 67.0014C288.548 67.1711 288.144 67.4102 287.801 67.7188C287.457 68.0273 287.181 68.3898 286.972 68.8063C286.762 69.2074 286.658 69.6394 286.658 70.1022L286.658 74.9153L294.165 74.9153L294.165 70.1253Z" fill="#00FF0A"/>
<path d="M276.837 4V16.3839L294.939 23.7414L276.837 30.9896V43.4099L310.674 27.7479V19.662L276.837 4Z" fill="#00FF0A"/>
<path d="M274.837 6V18.3839L292.939 25.7414L274.837 32.9896V45.4099L308.674 29.7479V21.662L274.837 6Z" fill="#000AFF"/>
<path d="M272.837 8V20.3839L290.939 27.7414L272.837 34.9896V47.4099L306.674 31.7479V23.662L272.837 8Z" fill="#FF88E9"/>
<path d="M32.0528 3.42835e-08L32.0528 8.72375L1.57665 8.72375L1.57665 1.36644e-06L32.0528 3.42835e-08ZM16.8596 14.0228C18.3386 14.0228 19.7578 14.2233 21.1173 14.6244C22.4917 15.0409 23.769 15.6272 24.9492 16.3831C26.1294 17.139 27.205 18.0414 28.1761 19.0904C29.1471 20.1549 29.9763 21.3273 30.6635 22.6077C31.3507 23.8881 31.881 25.2688 32.2545 26.7497C32.6429 28.2307 32.8372 29.7733 32.8372 31.3777C32.8372 32.9667 32.6429 34.5016 32.2545 35.9826C31.881 37.4635 31.3507 38.8442 30.6635 40.1246C29.9763 41.405 29.1471 42.5697 28.1761 43.6187C27.205 44.6832 26.1294 45.5933 24.9492 46.3492C23.769 47.1051 22.4917 47.6913 21.1173 48.1079C19.7578 48.5244 18.3386 48.7326 16.8596 48.7326C15.3806 48.7326 13.9613 48.5244 12.6019 48.1079C11.2424 47.6913 9.96507 47.1051 8.76993 46.3492C7.58972 45.5933 6.50662 44.6832 5.52063 43.6187C4.54957 42.5697 3.71297 41.405 3.01082 40.1246C2.32362 38.8442 1.79327 37.4635 1.41979 35.9826C1.03136 34.5016 0.837152 32.9667 0.837152 31.3777C0.837152 29.7733 1.03136 28.2307 1.41979 26.7497C1.79327 25.2688 2.32362 23.8881 3.01082 22.6077C3.71297 21.3273 4.54957 20.1549 5.52063 19.0904C6.50662 18.0414 7.58972 17.139 8.76993 16.3831C9.96507 15.6272 11.2424 15.0409 12.6019 14.6244C13.9613 14.2233 15.3806 14.0228 16.8596 14.0228ZM16.8372 22.7234C15.5524 22.7234 14.3647 22.9471 13.2741 23.3945C12.1836 23.8572 11.2349 24.4743 10.4282 25.2456C9.63641 26.0324 9.00896 26.9503 8.54584 27.9993C8.09766 29.0483 7.87357 30.1744 7.87357 31.3777C7.87357 32.581 8.09766 33.7071 8.54584 34.7561C9.00896 35.8206 9.63641 36.7385 10.4282 37.5098C11.2349 38.2966 12.1836 38.9136 13.2741 39.361C14.3647 39.8084 15.5524 40.032 16.8372 40.032C18.1219 40.032 19.3096 39.8084 20.4002 39.361C21.4908 38.9136 22.4319 38.2966 23.2237 37.5098C24.0304 36.7385 24.6579 35.8206 25.1061 34.7561C25.5692 33.7071 25.8007 32.581 25.8007 31.3777C25.8007 30.1744 25.5692 29.0483 25.1061 27.9993C24.6579 26.9503 24.0304 26.0324 23.2237 25.2456C22.4319 24.4743 21.4908 23.8572 20.4002 23.3944C19.3096 22.9471 18.1219 22.7234 16.8372 22.7234ZM20.2433 21.2193L13.6551 21.2193L13.6551 6.52545L20.2209 6.52545L20.2433 21.2193Z" fill="#00FF0A"/>
<path d="M20.1985 61.4124L20.1985 66.4106C20.1985 66.6729 20.2508 66.9428 20.3554 67.2205C20.4749 67.4982 20.6392 67.745 20.8484 67.961C21.0725 68.1924 21.3414 68.3775 21.6551 68.5163C21.9688 68.6706 22.3274 68.7477 22.7307 68.7477C23.1042 68.7477 23.4478 68.6783 23.7615 68.5395C24.0902 68.4007 24.3666 68.2155 24.5907 67.9841C24.8148 67.7682 24.9866 67.5213 25.1061 67.2436C25.2405 66.9814 25.3077 66.7114 25.3077 66.4338L25.3077 61.4124L20.1985 61.4124ZM8.29934 67.3594C8.29934 67.6062 8.35163 67.8993 8.4562 68.2387C8.56078 68.5935 8.72511 68.9174 8.9492 69.2105C9.17329 69.5191 9.47208 69.7813 9.84556 69.9973C10.219 70.2133 10.6747 70.3213 11.2125 70.3213C11.6607 70.3213 12.0566 70.2364 12.4002 70.0667C12.7587 69.9125 13.0575 69.6965 13.2965 69.4188C13.5356 69.1565 13.7148 68.8403 13.8344 68.4701C13.9688 68.1153 14.036 67.7373 14.036 67.3362L14.036 61.4124L8.29934 61.4124L8.29934 67.3594ZM1.57665 52.6886L32.0528 52.6886L32.0528 66.9428C32.0528 68.578 31.8661 70.0513 31.4926 71.3625C31.1191 72.6892 30.5664 73.8154 29.8344 74.741C29.1023 75.6666 28.191 76.3762 27.1005 76.8699C26.0248 77.3635 24.7849 77.6103 23.3806 77.6103C22.7681 77.6103 22.163 77.5023 21.5655 77.2864C20.9679 77.0858 20.4151 76.8159 19.9072 76.4765C19.4142 76.1371 18.9735 75.7437 18.5851 75.2963C18.2116 74.8644 17.9352 74.417 17.7559 73.9542C17.487 74.6638 17.121 75.3426 16.6579 75.9905C16.2097 76.6385 15.6868 77.2092 15.0893 77.7029C14.5066 78.1965 13.8568 78.5899 13.1397 78.883C12.4226 79.1761 11.6607 79.3227 10.854 79.3227C9.12101 79.3227 7.66442 78.991 6.48421 78.3277C5.30401 77.6797 4.34789 76.8313 3.61587 75.7823C2.88384 74.7333 2.36097 73.5454 2.04724 72.2187C1.73351 70.9075 1.57665 69.5885 1.57665 68.2618L1.57665 52.6886Z" fill="#00FF0A"/>
<path d="M32.0528 83.8109L32.0528 106.534L25.0164 106.534L25.0164 92.5346L20.1537 92.5346L20.1537 104.475L13.1397 104.475L13.1397 92.5346L8.61307 92.5346L8.61307 106.743L1.57665 106.743L1.57665 83.8109L32.0528 83.8109Z" fill="#00FF0A"/>
<path d="M25.0164 132.381L25.0164 121.852L9.64388 121.852C8.0155 121.852 6.64108 121.536 5.52063 120.903C4.40018 120.286 3.48889 119.484 2.78674 118.497C2.09953 117.509 1.60653 116.414 1.30775 115.211C0.99402 114.008 0.837156 112.827 0.837155 111.67C0.837155 110.961 0.874505 110.328 0.949201 109.773C1.00896 109.218 1.09113 108.716 1.1957 108.269L7.98562 109.773C7.98562 109.819 7.97815 109.92 7.96321 110.074C7.94827 110.228 7.93333 110.39 7.91839 110.56C7.90345 110.745 7.88851 110.915 7.87357 111.069C7.85863 111.238 7.85116 111.354 7.85116 111.416C7.85116 111.925 8.02297 112.334 8.36657 112.642C8.72511 112.966 9.29281 113.128 10.0697 113.128L32.0528 113.128L32.0529 141.058L1.57665 141.058L1.57665 132.381L25.0164 132.381Z" fill="#00FF0A"/>
<path d="M32.0529 146.981L32.0529 155.682L15.7167 155.682L32.0529 168.802L32.0529 176.461L1.57666 176.461L1.57666 167.714L17.98 167.714L1.57666 154.548L1.57666 146.981L32.0529 146.981Z" fill="#00FF0A"/>
<path d="M10.473 191.085L1.57666 191.085L1.57666 182.361L32.0529 182.361L32.0529 196.268C32.0529 197.98 31.7839 199.554 31.2461 200.989C30.7083 202.423 29.9539 203.657 28.9828 204.691C28.0267 205.74 26.8839 206.55 25.5543 207.121C24.2396 207.707 22.798 208 21.2293 208C19.6308 208 18.1742 207.707 16.8596 207.121C15.5449 206.55 14.4095 205.748 13.4534 204.714C12.5122 203.696 11.7802 202.47 11.2573 201.035C10.7345 199.616 10.473 198.065 10.473 196.384L10.473 191.085ZM17.5094 195.875C17.5094 196.337 17.6065 196.769 17.8007 197.171C17.995 197.587 18.2564 197.95 18.5851 198.258C18.9287 198.582 19.3246 198.829 19.7727 198.999C20.2209 199.184 20.7064 199.276 21.2293 199.276C21.7373 199.276 22.2153 199.184 22.6635 198.999C23.1266 198.829 23.53 198.59 23.8736 198.281C24.2172 197.973 24.4936 197.61 24.7027 197.194C24.9119 196.793 25.0164 196.361 25.0164 195.898L25.0164 191.085L17.5094 191.085L17.5094 195.875Z" fill="#00FF0A"/>
<path d="M42.6743 218V230.384L24.572 237.741L42.6743 244.99V257.41L8.83716 241.748V233.662L42.6743 218Z" fill="#00FF0A"/>
<path d="M39.6743 223V235.384L21.572 242.741L39.6743 249.99V262.41L5.83716 246.748V238.662L39.6743 223Z" fill="#000AFF"/>
<path d="M36.6743 227V239.384L18.572 246.741L36.6743 253.99V266.41L2.83716 250.748V242.662L36.6743 227Z" fill="#FF88E9"/>
</svg>
